<svg xmlns="http://www.w3.org/2000/svg" viewBox="0 0 50 3.08"><defs><style>.cls-1{fill:#fff;}</style></defs><title>Hecho por</title><g id="Capa_2" data-name="Capa 2"><g id="Capa_3" data-name="Capa 3"><path class="cls-1" d="M27.94,0h2.65V.8h-.84V3.08h-1V.8h-.84Z"/><path class="cls-1" d="M32.52,3.08l-.35-.8H31.8v.8h-1V0h1.43a1.38,1.38,0,0,1,.93.29,1,1,0,0,1,.33.81,1.31,1.31,0,0,1-.12.58,1,1,0,0,1-.35.4l.58,1ZM31.8,1.51h.45a.34.34,0,0,0,.25-.1.47.47,0,0,0,.08-.28A.4.4,0,0,0,32.5.87a.3.3,0,0,0-.25-.1H31.8Z"/><path class="cls-1" d="M33.87,0h1V3.08h-1Z"/><path class="cls-1" d="M40.61,0h.88V3.08h-.81L39.51,1.51V3.08h-.88V0h.81l1.17,1.58Z"/><path class="cls-1" d="M43.86,1.45h.84V2.68a2,2,0,0,1-.61.28,2.92,2.92,0,0,1-.73.12,1.72,1.72,0,0,1-.82-.2A1.58,1.58,0,0,1,42,2.33a1.54,1.54,0,0,1-.21-.8A1.48,1.48,0,0,1,42,.75,1.42,1.42,0,0,1,42.57.2a1.84,1.84,0,0,1,.85-.2,2,2,0,0,1,.7.13,1.72,1.72,0,0,1,.58.33l-.55.67A1.18,1.18,0,0,0,43.8.9a.92.92,0,0,0-.38-.09.59.59,0,0,0-.34.1.61.61,0,0,0-.23.25.78.78,0,0,0-.09.37.79.79,0,0,0,.09.38.67.67,0,0,0,.24.26.65.65,0,0,0,.34.1,1.36,1.36,0,0,0,.43-.11Z"/><path class="cls-1" d="M45,0h1V2.23h1.23v.85H45Z"/><path class="cls-1" d="M47.47,0H50V.77H48.44v.38h1.38v.77H48.44V2.3H50v.78H47.47Z"/><path class="cls-1" d="M36.74,0,35,3.08h3.44Zm0,1.38.59,1.06H36.15Z"/><path class="cls-1" d="M0,0H.09V1.48H2.28V0h.09v3H2.28V1.57H.09V3.06H0Z"/><path class="cls-1" d="M3.48,0H5.39V.1H3.57V1.45H5.19v.09H3.57V3H5.45v.08h-2Z"/><path class="cls-1" d="M8.05.18a1.4,1.4,0,0,0-.54-.1,1.49,1.49,0,0,0-.74.2,1.61,1.61,0,0,0-.54.53,1.43,1.43,0,0,0-.2.73,1.46,1.46,0,0,0,.2.73,1.61,1.61,0,0,0,.54.53A1.48,1.48,0,0,0,7.51,3a1.61,1.61,0,0,0,.54-.09,1.48,1.48,0,0,0,.45-.28l.07.06A1.86,1.86,0,0,1,8.08,3a1.56,1.56,0,0,1-.57.11,1.52,1.52,0,0,1-.78-.21,1.61,1.61,0,0,1-.57-.56A1.51,1.51,0,0,1,6,1.54,1.49,1.49,0,0,1,6.16.77,1.53,1.53,0,0,1,6.73.21,1.52,1.52,0,0,1,7.51,0a1.56,1.56,0,0,1,.57.1,1.5,1.5,0,0,1,.48.3L8.5.45A1.29,1.29,0,0,0,8.05.18Z"/><path class="cls-1" d="M9.36,0h.09V1.48h2.19V0h.09v3h-.09V1.57H9.45V3.06H9.36Z"/><path class="cls-1" d="M14.85.21a1.53,1.53,0,0,1,.57.56,1.44,1.44,0,0,1,0,1.53,1.56,1.56,0,0,1-.57.57,1.55,1.55,0,0,1-1.56,0,1.56,1.56,0,0,1-.57-.57,1.46,1.46,0,0,1-.21-.77,1.45,1.45,0,0,1,.21-.76,1.53,1.53,0,0,1,.57-.56,1.55,1.55,0,0,1,1.56,0ZM13.33.28a1.61,1.61,0,0,0-.54.53,1.45,1.45,0,0,0-.2.72,1.4,1.4,0,0,0,.2.73,1.52,1.52,0,0,0,.54.53,1.47,1.47,0,0,0,1.48,0,1.52,1.52,0,0,0,.54-.53,1.4,1.4,0,0,0,.2-.73,1.45,1.45,0,0,0-.2-.72,1.61,1.61,0,0,0-.54-.53,1.54,1.54,0,0,0-1.48,0Z"/><path class="cls-1" d="M19.6.28a.9.9,0,0,1,.3.73.92.92,0,0,1-.3.74,1.27,1.27,0,0,1-.86.27h-.95v1h-.08V0h1A1.26,1.26,0,0,1,19.6.28Zm-.07,1.41A.85.85,0,0,0,19.82,1a.83.83,0,0,0-.29-.67A1.17,1.17,0,0,0,18.74.1h-.95V1.93h.95A1.17,1.17,0,0,0,19.53,1.69Z"/><path class="cls-1" d="M22.6.21a1.53,1.53,0,0,1,.57.56,1.45,1.45,0,0,1,.21.76,1.46,1.46,0,0,1-.21.77,1.56,1.56,0,0,1-.57.57,1.57,1.57,0,0,1-1.57,0,1.56,1.56,0,0,1-.57-.57,1.46,1.46,0,0,1-.21-.77,1.45,1.45,0,0,1,.21-.76A1.58,1.58,0,0,1,21.82,0,1.52,1.52,0,0,1,22.6.21ZM21.08.28a1.45,1.45,0,0,0-.74,1.25,1.4,1.4,0,0,0,.2.73,1.38,1.38,0,0,0,.54.53,1.47,1.47,0,0,0,.74.2,1.43,1.43,0,0,0,.73-.2,1.38,1.38,0,0,0,.54-.53,1.32,1.32,0,0,0,.2-.73,1.35,1.35,0,0,0-.2-.72,1.45,1.45,0,0,0-.54-.53,1.42,1.42,0,0,0-.73-.19A1.46,1.46,0,0,0,21.08.28Z"/><path class="cls-1" d="M26.15,1.65a1,1,0,0,1-.59.33l.79,1.08h-.11L25.47,2l-.28,0h-1v1h-.08V0h1a1.25,1.25,0,0,1,.86.26.9.9,0,0,1,.3.73A1,1,0,0,1,26.15,1.65Zm-1,.28a1.21,1.21,0,0,0,.8-.24A.87.87,0,0,0,26.27,1,.85.85,0,0,0,26,.34a1.21,1.21,0,0,0-.8-.24h-1V1.93Z"/></g></g></svg>